<svg width="33" height="33" viewBox="0 0 33 33" fill="none" xmlns="http://www.w3.org/2000/svg">
<path d="M16.76 0.872681C7.92001 0.872681 0.76001 8.03668 0.76001 16.8727C0.76001 23.9433 5.34401 29.9393 11.7 32.0527C12.5 32.2033 12.7933 31.7087 12.7933 31.2833C12.7933 30.9033 12.78 29.8967 12.7733 28.5633C8.32268 29.5287 7.38401 26.4167 7.38401 26.4167C6.65601 24.57 5.60401 24.0767 5.60401 24.0767C4.15468 23.0847 5.71601 23.1047 5.71601 23.1047C7.32268 23.2167 8.16668 24.7527 8.16668 24.7527C9.59334 27.1993 11.912 26.4927 12.8267 26.0833C12.9707 25.0487 13.3827 24.3433 13.84 23.9433C10.2867 23.5433 6.55201 22.1673 6.55201 16.0367C6.55201 14.29 7.17201 12.8633 8.19868 11.7433C8.01868 11.3393 7.47868 9.71268 8.33868 7.50868C8.33868 7.50868 9.67868 7.07935 12.7387 9.14868C14.0187 8.79268 15.3787 8.61668 16.7387 8.60868C18.0987 8.61668 19.4587 8.79268 20.7387 9.14868C23.7787 7.07935 25.1187 7.50868 25.1187 7.50868C25.9787 9.71268 25.4387 11.3393 25.2787 11.7433C26.2987 12.8633 26.9187 14.29 26.9187 16.0367C26.9187 22.1833 23.1787 23.5367 19.6187 23.93C20.1787 24.41 20.6987 25.3913 20.6987 26.89C20.6987 29.0313 20.6787 30.7513 20.6787 31.2713C20.6787 31.6913 20.9587 32.1913 21.7787 32.0313C28.18 29.9327 32.76 23.9327 32.76 16.8727C32.76 8.03668 25.596 0.872681 16.76 0.872681Z" fill="#9EFF85"/>
</svg>
