<svg width="35" height="35" viewBox="0 0 35 35" fill="none" xmlns="http://www.w3.org/2000/svg">
<path d="M17.76 0.476501C13.1417 0.476501 12.5651 0.497751 10.7518 0.578501C8.94126 0.663501 7.70876 0.948251 6.62501 1.369C5.50726 1.8025 4.55809 2.38475 3.61318 3.32967C2.66826 4.27458 2.08459 5.22233 1.65251 6.3415C1.23176 7.42525 0.945593 8.65775 0.86201 10.4683C0.77701 12.2816 0.76001 12.8582 0.76001 17.4765C0.76001 22.0948 0.78126 22.6714 0.86201 24.4848C0.94701 26.2938 1.23176 27.5278 1.65251 28.6115C2.07934 29.746 2.74844 30.7739 3.61318 31.6233C4.46215 32.4887 5.49011 33.1579 6.62501 33.584C7.71018 34.0033 8.94268 34.2909 10.7518 34.3745C12.5651 34.4595 13.1417 34.4765 17.76 34.4765C22.3783 34.4765 22.9549 34.4552 24.7683 34.3745C26.5773 34.2895 27.8113 34.0033 28.895 33.584C30.0293 33.1566 31.057 32.4876 31.9068 31.6233C32.7725 30.7746 33.4417 29.7466 33.8675 28.6115C34.2868 27.5278 34.5744 26.2938 34.658 24.4848C34.743 22.6714 34.76 22.0948 34.76 17.4765C34.76 12.8582 34.7388 12.2816 34.658 10.4683C34.573 8.65917 34.2868 7.42383 33.8675 6.3415C33.4405 5.20706 32.7714 4.17928 31.9068 3.32967C31.0585 2.46358 30.0303 1.79427 28.895 1.369C27.8113 0.948251 26.5773 0.662085 24.7683 0.578501C22.9549 0.493501 22.3783 0.476501 17.76 0.476501ZM17.76 3.5365C22.2976 3.5365 22.8388 3.55917 24.6308 3.63708C26.2883 3.715 27.1879 3.98983 27.7858 4.225C28.5819 4.53242 29.1458 4.90075 29.7436 5.49433C30.3372 6.08933 30.7055 6.65458 31.0129 7.45075C31.2453 8.04858 31.5229 8.94817 31.598 10.6057C31.6788 12.3992 31.6972 12.9375 31.6972 17.4765C31.6972 22.0155 31.6759 22.5553 31.5923 24.3473C31.5059 26.0048 31.2297 26.9044 30.9959 27.5023C30.7194 28.24 30.2847 28.9082 29.7223 29.4601C29.1729 30.0229 28.5051 30.4565 27.7673 30.7294C27.1723 30.9617 26.2586 31.2394 24.6011 31.3145C22.7963 31.3953 22.265 31.4137 17.7175 31.4137C13.1686 31.4137 12.6373 31.3924 10.8339 31.3088C9.17501 31.2224 8.26126 30.9462 7.66626 30.7124C6.92804 30.4393 6.26047 30.0041 5.71268 29.4388C5.144 28.893 4.70785 28.2243 4.43768 27.4838C4.20393 26.8888 3.92909 25.9751 3.84268 24.3176C3.77893 22.5326 3.75626 21.9815 3.75626 17.4553C3.75626 12.9276 3.77893 12.3751 3.84268 10.5688C3.92909 8.91133 4.20393 7.999 4.43768 7.404C4.73518 6.5965 5.11626 6.044 5.71268 5.44758C6.30626 4.854 6.86018 4.4715 7.66626 4.17542C8.26126 3.94025 9.15518 3.664 10.8127 3.579C12.6189 3.51525 13.1502 3.494 17.6963 3.494L17.76 3.5365ZM17.76 8.747C16.6136 8.747 15.4785 8.9728 14.4194 9.4115C13.3603 9.85019 12.3979 10.4932 11.5873 11.3038C10.7767 12.1144 10.1337 13.0768 9.695 14.1359C9.2563 15.195 9.03051 16.3301 9.03051 17.4765C9.03051 18.6229 9.2563 19.758 9.695 20.8171C10.1337 21.8762 10.7767 22.8386 11.5873 23.6492C12.3979 24.4598 13.3603 25.1028 14.4194 25.5415C15.4785 25.9802 16.6136 26.206 17.76 26.206C20.0752 26.206 22.2956 25.2863 23.9327 23.6492C25.5698 22.0121 26.4895 19.7917 26.4895 17.4765C26.4895 15.1613 25.5698 12.9409 23.9327 11.3038C22.2956 9.66671 20.0752 8.747 17.76 8.747ZM17.76 23.1432C14.6292 23.1432 12.0933 20.6073 12.0933 17.4765C12.0933 14.3457 14.6292 11.8098 17.76 11.8098C20.8908 11.8098 23.4267 14.3457 23.4267 17.4765C23.4267 20.6073 20.8908 23.1432 17.76 23.1432ZM28.8752 8.40275C28.8555 8.93064 28.632 9.43034 28.2515 9.79685C27.8711 10.1634 27.3634 10.3681 26.8352 10.3681C26.3069 10.3681 25.7992 10.1634 25.4188 9.79685C25.0384 9.43034 24.8149 8.93064 24.7952 8.40275C24.7952 7.86171 25.0101 7.34283 25.3927 6.96025C25.7753 6.57768 26.2941 6.36275 26.8352 6.36275C27.3762 6.36275 27.8951 6.57768 28.2777 6.96025C28.6602 7.34283 28.8752 7.86171 28.8752 8.40275Z" fill="#9EFF85"/>
</svg>
