<svg width="32" height="33" viewBox="0 0 32 33" fill="none" xmlns="http://www.w3.org/2000/svg">
<path d="M27.0937 27.5768H22.4261V20.2628C22.4261 18.5187 22.3907 16.2742 19.9938 16.2742C17.5602 16.2742 17.1886 18.172 17.1886 20.1341V27.5768H12.521V12.5365H17.0047V14.5866H17.0651C17.6916 13.4046 19.215 12.1569 21.491 12.1569C26.2203 12.1569 27.095 15.2695 27.095 19.3212L27.0937 27.5768ZM7.24925 10.4785C6.89317 10.4787 6.54056 10.4086 6.21159 10.2724C5.88262 10.1361 5.58375 9.93629 5.33209 9.68439C5.08043 9.43248 4.88092 9.13342 4.74498 8.80432C4.60903 8.47522 4.53932 8.12254 4.53984 7.76646C4.5401 7.23033 4.69934 6.70632 4.99741 6.26069C5.29548 5.81506 5.71901 5.46782 6.21443 5.2629C6.70985 5.05797 7.25491 5.00455 7.78068 5.1094C8.30646 5.21425 8.78934 5.47265 9.16826 5.85194C9.54717 6.23122 9.80511 6.71435 9.90945 7.24023C10.0138 7.76611 9.95984 8.31112 9.75444 8.80634C9.54903 9.30156 9.20138 9.72474 8.75546 10.0224C8.30954 10.32 7.78538 10.4788 7.24925 10.4785ZM9.58961 27.5768H4.90889V12.5365H9.58961V27.5768ZM29.4288 0.716492H2.5659C1.28015 0.716492 0.23999 1.73301 0.23999 2.98724V29.9657C0.23999 31.2213 1.28015 32.2365 2.5659 32.2365H29.4249C30.7093 32.2365 31.76 31.2213 31.76 29.9657V2.98724C31.76 1.73301 30.7093 0.716492 29.4249 0.716492H29.4288Z" fill="#9EFF85"/>
</svg>
