<svg width="25" height="18" viewBox="0 0 25 18" fill="none" xmlns="http://www.w3.org/2000/svg">
<path d="M24.5 2.45685V16.3658C24.5 17.2698 23.768 18.0018 22.864 18.0018H19.045V8.72985L12.5 13.6398L5.955 8.72985V18.0028H2.136C1.92107 18.0028 1.70825 17.9605 1.5097 17.8782C1.31115 17.7959 1.13075 17.6753 0.97882 17.5233C0.82689 17.3713 0.706404 17.1908 0.624246 16.9922C0.542088 16.7936 0.499869 16.5808 0.5 16.3658V2.45685C0.5 0.433845 2.809 -0.721155 4.427 0.492845L5.955 1.63985L12.5 6.54785L19.045 1.63785L20.573 0.492845C22.19 -0.720155 24.5 0.433845 24.5 2.45685Z" fill="black"/>
</svg>
