<svg width="29" height="28" viewBox="0 0 29 28" fill="none" xmlns="http://www.w3.org/2000/svg">
<path d="M21.1435 16.779C20.7829 16.6052 19.0091 15.7675 18.6789 15.6509C18.3474 15.5354 18.107 15.4782 17.8654 15.8259C17.6263 16.1724 16.9342 16.9529 16.7242 17.1839C16.5142 17.416 16.3029 17.444 15.9423 17.2714C15.5817 17.0964 14.4186 16.7312 13.0406 15.5505C11.9686 14.6312 11.2438 13.496 11.0337 13.1484C10.8237 12.8019 11.0119 12.614 11.1915 12.4414C11.3542 12.2862 11.5534 12.0365 11.733 11.8347C11.9139 11.6317 11.9734 11.487 12.0948 11.2549C12.215 11.0239 12.1555 10.822 12.0645 10.6482C11.9734 10.4744 11.2523 8.76753 10.9524 8.07337C10.6586 7.39787 10.3611 7.49004 10.1401 7.47837C9.9301 7.46904 9.68971 7.4667 9.44811 7.4667C9.20771 7.4667 8.81677 7.55304 8.48654 7.9007C8.15631 8.2472 7.22388 9.08603 7.22388 10.7929C7.22388 12.4985 8.51689 14.147 8.69658 14.3792C8.87748 14.6102 11.2413 18.1125 14.8606 19.614C15.7213 19.971 16.3927 20.1845 16.9172 20.3432C17.7817 20.608 18.5684 20.5707 19.1888 20.4808C19.8821 20.3817 21.3232 19.642 21.6243 18.8323C21.9254 18.0227 21.9254 17.3285 21.8343 17.1839C21.7445 17.0392 21.5053 16.9529 21.1435 16.779ZM14.5607 25.4158H14.5558C12.4066 25.416 10.2969 24.8607 8.44769 23.8082L8.0094 23.5585L3.46746 24.7042L4.67913 20.4482L4.39382 20.0118C3.1924 18.1735 2.55682 16.046 2.56053 13.8752C2.56175 7.51687 7.94627 2.34388 14.5655 2.34388C17.7707 2.34388 20.7841 3.54554 23.0496 5.72487C24.1674 6.79426 25.0534 8.06605 25.6563 9.46665C26.2592 10.8672 26.5671 12.3688 26.562 13.8845C26.5584 20.2428 21.1751 25.4158 14.5607 25.4158ZM24.7749 4.06937C23.4372 2.77545 21.8455 1.7495 20.0922 1.05098C18.3389 0.352455 16.4587 -0.00475561 14.5607 4.78071e-05C6.60226 4.78071e-05 0.125052 6.2242 0.12141 13.874C0.12141 16.3194 0.785521 18.7063 2.0494 20.8098L0 28L7.65488 26.0703C9.77177 27.1786 12.1439 27.7594 14.5546 27.7597H14.5607C22.5179 27.7597 28.9963 21.5355 28.9999 13.8845C29.0058 12.0613 28.6354 10.2551 27.9102 8.57041C27.185 6.88566 26.1193 5.35582 24.7749 4.06937Z" fill="black"/>
</svg>
